<mxfile host="Electron" modified="2024-01-08T12:46:34.387Z" agent="Mozilla/5.0 (Windows NT 10.0; Win64; x64) AppleWebKit/537.36 (KHTML, like Gecko) draw.io/22.1.16 Chrome/120.0.6099.109 Electron/28.1.0 Safari/537.36" etag="3KJVwTzY1ChaGg0Nf7Nz" version="22.1.16" type="device">
  <diagram name="Страница — 1" id="ygGXOrWWSujeh68Y5JwH">
    <mxGraphModel dx="574" dy="385" grid="1" gridSize="10" guides="1" tooltips="1" connect="1" arrows="1" fold="1" page="1" pageScale="1" pageWidth="827" pageHeight="1169" math="0" shadow="0">
      <root>
        <mxCell id="0" />
        <mxCell id="1" parent="0" />
        <mxCell id="ju3X173J6w4Ng7l485Qm-1" value="" style="ellipse;fillColor=strokeColor;html=1;" parent="1" vertex="1">
          <mxGeometry x="329" y="20" width="30" height="30" as="geometry" />
        </mxCell>
        <mxCell id="ju3X173J6w4Ng7l485Qm-4" value="Форма регистрации" style="html=1;align=center;verticalAlign=top;rounded=1;absoluteArcSize=1;arcSize=10;dashed=0;whiteSpace=wrap;" parent="1" vertex="1">
          <mxGeometry x="274" y="90" width="140" height="40" as="geometry" />
        </mxCell>
        <mxCell id="ju3X173J6w4Ng7l485Qm-5" value="" style="endArrow=open;html=1;rounded=0;exitX=0.5;exitY=1;exitDx=0;exitDy=0;entryX=0.5;entryY=0;entryDx=0;entryDy=0;endFill=0;" parent="1" source="ju3X173J6w4Ng7l485Qm-1" target="ju3X173J6w4Ng7l485Qm-4" edge="1">
          <mxGeometry width="50" height="50" relative="1" as="geometry">
            <mxPoint x="579" y="170" as="sourcePoint" />
            <mxPoint x="629" y="120" as="targetPoint" />
          </mxGeometry>
        </mxCell>
        <mxCell id="ju3X173J6w4Ng7l485Qm-6" value="Форма регистрации&lt;br&gt;&amp;nbsp;с предупреждением" style="html=1;align=center;verticalAlign=top;rounded=1;absoluteArcSize=1;arcSize=10;dashed=0;whiteSpace=wrap;" parent="1" vertex="1">
          <mxGeometry x="569" y="90" width="140" height="40" as="geometry" />
        </mxCell>
        <mxCell id="ju3X173J6w4Ng7l485Qm-7" value="" style="endArrow=open;html=1;rounded=0;exitX=1;exitY=0.5;exitDx=0;exitDy=0;entryX=0;entryY=0.5;entryDx=0;entryDy=0;endFill=0;" parent="1" source="ju3X173J6w4Ng7l485Qm-4" target="ju3X173J6w4Ng7l485Qm-6" edge="1">
          <mxGeometry width="50" height="50" relative="1" as="geometry">
            <mxPoint x="354" y="60" as="sourcePoint" />
            <mxPoint x="354" y="100" as="targetPoint" />
          </mxGeometry>
        </mxCell>
        <mxCell id="ju3X173J6w4Ng7l485Qm-8" value="Войти [неуспех]" style="edgeLabel;html=1;align=center;verticalAlign=middle;resizable=0;points=[];" parent="ju3X173J6w4Ng7l485Qm-7" vertex="1" connectable="0">
          <mxGeometry x="-0.142" relative="1" as="geometry">
            <mxPoint y="-10" as="offset" />
          </mxGeometry>
        </mxCell>
        <mxCell id="ju3X173J6w4Ng7l485Qm-9" value="" style="html=1;align=center;verticalAlign=top;rounded=1;absoluteArcSize=1;arcSize=10;dashed=0;whiteSpace=wrap;" parent="1" vertex="1">
          <mxGeometry x="205" y="270" width="575" height="420" as="geometry" />
        </mxCell>
        <mxCell id="ju3X173J6w4Ng7l485Qm-10" value="" style="endArrow=open;html=1;rounded=1;exitX=0.25;exitY=0;exitDx=0;exitDy=0;entryX=0.75;entryY=0;entryDx=0;entryDy=0;curved=0;endFill=0;" parent="1" source="ju3X173J6w4Ng7l485Qm-6" target="ju3X173J6w4Ng7l485Qm-6" edge="1">
          <mxGeometry width="50" height="50" relative="1" as="geometry">
            <mxPoint x="424" y="120" as="sourcePoint" />
            <mxPoint x="579" y="120" as="targetPoint" />
            <Array as="points">
              <mxPoint x="639" y="50" />
            </Array>
          </mxGeometry>
        </mxCell>
        <mxCell id="ju3X173J6w4Ng7l485Qm-11" value="Войти [неуспех]" style="edgeLabel;html=1;align=center;verticalAlign=middle;resizable=0;points=[];" parent="ju3X173J6w4Ng7l485Qm-10" vertex="1" connectable="0">
          <mxGeometry x="-0.142" relative="1" as="geometry">
            <mxPoint x="5" y="-16" as="offset" />
          </mxGeometry>
        </mxCell>
        <mxCell id="ju3X173J6w4Ng7l485Qm-12" value="Доска" style="html=1;align=center;verticalAlign=top;rounded=1;absoluteArcSize=1;arcSize=10;dashed=0;whiteSpace=wrap;" parent="1" vertex="1">
          <mxGeometry x="275" y="410" width="140" height="40" as="geometry" />
        </mxCell>
        <mxCell id="ju3X173J6w4Ng7l485Qm-13" value="Проекты" style="html=1;align=center;verticalAlign=top;rounded=1;absoluteArcSize=1;arcSize=10;dashed=0;whiteSpace=wrap;" parent="1" vertex="1">
          <mxGeometry x="275" y="310" width="140" height="40" as="geometry" />
        </mxCell>
        <mxCell id="ju3X173J6w4Ng7l485Qm-14" value="Профиль" style="html=1;align=center;verticalAlign=top;rounded=1;absoluteArcSize=1;arcSize=10;dashed=0;whiteSpace=wrap;" parent="1" vertex="1">
          <mxGeometry x="275" y="510" width="140" height="40" as="geometry" />
        </mxCell>
        <mxCell id="ju3X173J6w4Ng7l485Qm-16" value="" style="endArrow=open;html=1;rounded=0;align=center;verticalAlign=top;endFill=0;labelBackgroundColor=none;endSize=6;exitX=0.5;exitY=1;exitDx=0;exitDy=0;entryX=0.5;entryY=0;entryDx=0;entryDy=0;" parent="1" source="ju3X173J6w4Ng7l485Qm-4" target="ju3X173J6w4Ng7l485Qm-17" edge="1">
          <mxGeometry relative="1" as="geometry">
            <mxPoint x="289" y="170" as="sourcePoint" />
            <mxPoint x="339" y="210" as="targetPoint" />
          </mxGeometry>
        </mxCell>
        <mxCell id="ju3X173J6w4Ng7l485Qm-17" value="" style="rhombus;whiteSpace=wrap;html=1;" parent="1" vertex="1">
          <mxGeometry x="329" y="200" width="30" height="20" as="geometry" />
        </mxCell>
        <mxCell id="ju3X173J6w4Ng7l485Qm-18" value="" style="ellipse;whiteSpace=wrap;html=1;" parent="1" vertex="1">
          <mxGeometry x="335" y="260" width="20" height="20" as="geometry" />
        </mxCell>
        <mxCell id="ju3X173J6w4Ng7l485Qm-20" value="" style="endArrow=open;html=1;rounded=1;exitX=0.081;exitY=-0.006;exitDx=0;exitDy=0;entryX=0;entryY=0.5;entryDx=0;entryDy=0;curved=0;exitPerimeter=0;endFill=0;" parent="1" source="ju3X173J6w4Ng7l485Qm-9" target="ju3X173J6w4Ng7l485Qm-17" edge="1">
          <mxGeometry width="50" height="50" relative="1" as="geometry">
            <mxPoint x="460" y="140" as="sourcePoint" />
            <mxPoint x="530" y="140" as="targetPoint" />
            <Array as="points">
              <mxPoint x="252" y="210" />
            </Array>
          </mxGeometry>
        </mxCell>
        <mxCell id="ju3X173J6w4Ng7l485Qm-21" value="Выбрать Проекты" style="edgeLabel;html=1;align=center;verticalAlign=middle;resizable=0;points=[];" parent="ju3X173J6w4Ng7l485Qm-20" vertex="1" connectable="0">
          <mxGeometry x="-0.142" relative="1" as="geometry">
            <mxPoint x="-55" y="40" as="offset" />
          </mxGeometry>
        </mxCell>
        <mxCell id="ju3X173J6w4Ng7l485Qm-22" value="Войти [успех]" style="edgeLabel;html=1;align=center;verticalAlign=middle;resizable=0;points=[];" parent="1" vertex="1" connectable="0">
          <mxGeometry x="304" y="160" as="geometry" />
        </mxCell>
        <mxCell id="ju3X173J6w4Ng7l485Qm-23" value="" style="endArrow=open;html=1;rounded=1;align=center;verticalAlign=top;endFill=0;labelBackgroundColor=none;endSize=6;exitX=0.5;exitY=1;exitDx=0;exitDy=0;curved=0;entryX=1;entryY=0.5;entryDx=0;entryDy=0;" parent="1" source="ju3X173J6w4Ng7l485Qm-6" target="ju3X173J6w4Ng7l485Qm-17" edge="1">
          <mxGeometry relative="1" as="geometry">
            <mxPoint x="354" y="140" as="sourcePoint" />
            <mxPoint x="384" y="210" as="targetPoint" />
            <Array as="points">
              <mxPoint x="639" y="210" />
            </Array>
          </mxGeometry>
        </mxCell>
        <mxCell id="ju3X173J6w4Ng7l485Qm-24" value="" style="endArrow=open;html=1;rounded=1;align=center;verticalAlign=top;endFill=0;labelBackgroundColor=none;endSize=6;exitX=0.5;exitY=1;exitDx=0;exitDy=0;curved=0;entryX=0.5;entryY=0;entryDx=0;entryDy=0;" parent="1" source="ju3X173J6w4Ng7l485Qm-17" target="ju3X173J6w4Ng7l485Qm-18" edge="1">
          <mxGeometry relative="1" as="geometry">
            <mxPoint x="649" y="140" as="sourcePoint" />
            <mxPoint x="499" y="260" as="targetPoint" />
          </mxGeometry>
        </mxCell>
        <mxCell id="ju3X173J6w4Ng7l485Qm-25" value="Войти [успех]" style="edgeLabel;html=1;align=center;verticalAlign=middle;resizable=0;points=[];" parent="1" vertex="1" connectable="0">
          <mxGeometry x="568" y="200" as="geometry" />
        </mxCell>
        <mxCell id="ju3X173J6w4Ng7l485Qm-26" value="" style="ellipse;whiteSpace=wrap;html=1;" parent="1" vertex="1">
          <mxGeometry x="195" y="420" width="20" height="20" as="geometry" />
        </mxCell>
        <mxCell id="ju3X173J6w4Ng7l485Qm-29" value="" style="ellipse;whiteSpace=wrap;html=1;" parent="1" vertex="1">
          <mxGeometry x="195" y="520" width="20" height="20" as="geometry" />
        </mxCell>
        <mxCell id="ju3X173J6w4Ng7l485Qm-30" value="" style="endArrow=open;html=1;rounded=1;exitX=0.001;exitY=0.848;exitDx=0;exitDy=0;entryX=0;entryY=0.5;entryDx=0;entryDy=0;curved=0;exitPerimeter=0;endFill=0;" parent="1" target="ju3X173J6w4Ng7l485Qm-29" edge="1">
          <mxGeometry width="50" height="50" relative="1" as="geometry">
            <mxPoint x="205.27999999999997" y="559.8399999999999" as="sourcePoint" />
            <mxPoint x="147" y="450" as="targetPoint" />
            <Array as="points">
              <mxPoint x="70" y="560" />
              <mxPoint x="70" y="530" />
            </Array>
          </mxGeometry>
        </mxCell>
        <mxCell id="ju3X173J6w4Ng7l485Qm-31" value="Выбрать Профиль" style="edgeLabel;html=1;align=center;verticalAlign=middle;resizable=0;points=[];" parent="ju3X173J6w4Ng7l485Qm-30" vertex="1" connectable="0">
          <mxGeometry x="-0.142" relative="1" as="geometry">
            <mxPoint x="60" y="10" as="offset" />
          </mxGeometry>
        </mxCell>
        <mxCell id="ju3X173J6w4Ng7l485Qm-32" value="" style="endArrow=open;html=1;rounded=1;entryX=0;entryY=0.5;entryDx=0;entryDy=0;curved=0;endFill=0;exitX=0;exitY=0.454;exitDx=0;exitDy=0;exitPerimeter=0;" parent="1" target="ju3X173J6w4Ng7l485Qm-26" edge="1" source="ju3X173J6w4Ng7l485Qm-9">
          <mxGeometry width="50" height="50" relative="1" as="geometry">
            <mxPoint x="200" y="462" as="sourcePoint" />
            <mxPoint x="195" y="432" as="targetPoint" />
            <Array as="points">
              <mxPoint x="70" y="462" />
              <mxPoint x="70" y="430" />
            </Array>
          </mxGeometry>
        </mxCell>
        <mxCell id="ju3X173J6w4Ng7l485Qm-33" value="Выбрать Доска(проект)" style="edgeLabel;html=1;align=center;verticalAlign=middle;resizable=0;points=[];" parent="ju3X173J6w4Ng7l485Qm-32" vertex="1" connectable="0">
          <mxGeometry x="-0.142" relative="1" as="geometry">
            <mxPoint x="61" y="15" as="offset" />
          </mxGeometry>
        </mxCell>
        <mxCell id="ju3X173J6w4Ng7l485Qm-34" value="" style="endArrow=open;html=1;rounded=1;align=center;verticalAlign=top;endFill=0;labelBackgroundColor=none;endSize=6;exitX=0.5;exitY=1;exitDx=0;exitDy=0;curved=0;entryX=0.5;entryY=0;entryDx=0;entryDy=0;" parent="1" source="ju3X173J6w4Ng7l485Qm-18" target="ju3X173J6w4Ng7l485Qm-13" edge="1">
          <mxGeometry relative="1" as="geometry">
            <mxPoint x="200" y="230" as="sourcePoint" />
            <mxPoint x="355" y="270" as="targetPoint" />
          </mxGeometry>
        </mxCell>
        <mxCell id="ju3X173J6w4Ng7l485Qm-35" value="" style="endArrow=open;html=1;rounded=1;align=center;verticalAlign=top;endFill=0;labelBackgroundColor=none;endSize=6;exitX=1;exitY=0.5;exitDx=0;exitDy=0;curved=0;entryX=0;entryY=0.5;entryDx=0;entryDy=0;" parent="1" source="ju3X173J6w4Ng7l485Qm-26" target="ju3X173J6w4Ng7l485Qm-12" edge="1">
          <mxGeometry relative="1" as="geometry">
            <mxPoint x="355" y="290" as="sourcePoint" />
            <mxPoint x="355" y="320" as="targetPoint" />
          </mxGeometry>
        </mxCell>
        <mxCell id="ju3X173J6w4Ng7l485Qm-36" value="" style="endArrow=open;html=1;rounded=1;align=center;verticalAlign=top;endFill=0;labelBackgroundColor=none;endSize=6;exitX=1;exitY=0.5;exitDx=0;exitDy=0;curved=0;entryX=0;entryY=0.5;entryDx=0;entryDy=0;" parent="1" source="ju3X173J6w4Ng7l485Qm-29" target="ju3X173J6w4Ng7l485Qm-14" edge="1">
          <mxGeometry relative="1" as="geometry">
            <mxPoint x="225" y="440" as="sourcePoint" />
            <mxPoint x="285" y="440" as="targetPoint" />
          </mxGeometry>
        </mxCell>
        <mxCell id="EwtHWBw10y8LaySsHu0H-1" value="Создание/редактирование задачи" style="html=1;align=center;verticalAlign=top;rounded=1;absoluteArcSize=1;arcSize=10;dashed=0;whiteSpace=wrap;" vertex="1" parent="1">
          <mxGeometry x="555" y="410" width="140" height="40" as="geometry" />
        </mxCell>
        <mxCell id="EwtHWBw10y8LaySsHu0H-2" value="" style="endArrow=open;html=1;rounded=1;align=center;verticalAlign=top;endFill=0;labelBackgroundColor=none;endSize=6;exitX=1;exitY=0;exitDx=0;exitDy=0;curved=0;entryX=0;entryY=0;entryDx=0;entryDy=0;" edge="1" parent="1" source="ju3X173J6w4Ng7l485Qm-12" target="EwtHWBw10y8LaySsHu0H-1">
          <mxGeometry relative="1" as="geometry">
            <mxPoint x="225" y="440" as="sourcePoint" />
            <mxPoint x="285" y="440" as="targetPoint" />
          </mxGeometry>
        </mxCell>
        <mxCell id="EwtHWBw10y8LaySsHu0H-3" value="Создать задачу" style="edgeLabel;html=1;align=center;verticalAlign=middle;resizable=0;points=[];" vertex="1" connectable="0" parent="EwtHWBw10y8LaySsHu0H-2">
          <mxGeometry x="-0.0223" y="1" relative="1" as="geometry">
            <mxPoint y="-9" as="offset" />
          </mxGeometry>
        </mxCell>
        <mxCell id="EwtHWBw10y8LaySsHu0H-5" value="" style="endArrow=open;html=1;rounded=1;align=center;verticalAlign=top;endFill=0;labelBackgroundColor=none;endSize=6;exitX=1;exitY=0.5;exitDx=0;exitDy=0;curved=0;entryX=0;entryY=0.5;entryDx=0;entryDy=0;" edge="1" parent="1" source="ju3X173J6w4Ng7l485Qm-12" target="EwtHWBw10y8LaySsHu0H-1">
          <mxGeometry relative="1" as="geometry">
            <mxPoint x="425" y="430" as="sourcePoint" />
            <mxPoint x="540" y="430" as="targetPoint" />
          </mxGeometry>
        </mxCell>
        <mxCell id="EwtHWBw10y8LaySsHu0H-6" value="Редактировать задачу" style="edgeLabel;html=1;align=center;verticalAlign=middle;resizable=0;points=[];" vertex="1" connectable="0" parent="EwtHWBw10y8LaySsHu0H-5">
          <mxGeometry x="-0.0223" y="1" relative="1" as="geometry">
            <mxPoint y="-9" as="offset" />
          </mxGeometry>
        </mxCell>
        <mxCell id="EwtHWBw10y8LaySsHu0H-7" value="" style="endArrow=open;html=1;rounded=1;entryX=1;entryY=1;entryDx=0;entryDy=0;curved=0;endFill=0;exitX=0;exitY=1;exitDx=0;exitDy=0;" edge="1" parent="1" source="EwtHWBw10y8LaySsHu0H-1" target="ju3X173J6w4Ng7l485Qm-12">
          <mxGeometry width="50" height="50" relative="1" as="geometry">
            <mxPoint x="213.03999999999996" y="470.90999999999997" as="sourcePoint" />
            <mxPoint x="205" y="440" as="targetPoint" />
          </mxGeometry>
        </mxCell>
        <mxCell id="EwtHWBw10y8LaySsHu0H-9" value=":Создание проекта" style="html=1;align=center;verticalAlign=top;rounded=1;absoluteArcSize=1;arcSize=10;dashed=0;whiteSpace=wrap;" vertex="1" parent="1">
          <mxGeometry x="555" y="280" width="140" height="40" as="geometry" />
        </mxCell>
        <mxCell id="EwtHWBw10y8LaySsHu0H-10" value="" style="endArrow=open;html=1;rounded=1;align=center;verticalAlign=top;endFill=0;labelBackgroundColor=none;endSize=6;exitX=1;exitY=0;exitDx=0;exitDy=0;curved=0;entryX=0;entryY=0.75;entryDx=0;entryDy=0;" edge="1" parent="1" source="ju3X173J6w4Ng7l485Qm-13" target="EwtHWBw10y8LaySsHu0H-9">
          <mxGeometry relative="1" as="geometry">
            <mxPoint x="425" y="420" as="sourcePoint" />
            <mxPoint x="565" y="420" as="targetPoint" />
          </mxGeometry>
        </mxCell>
        <mxCell id="EwtHWBw10y8LaySsHu0H-11" value="Создать проект" style="edgeLabel;html=1;align=center;verticalAlign=middle;resizable=0;points=[];" vertex="1" connectable="0" parent="EwtHWBw10y8LaySsHu0H-10">
          <mxGeometry x="-0.0223" y="1" relative="1" as="geometry">
            <mxPoint y="-9" as="offset" />
          </mxGeometry>
        </mxCell>
        <mxCell id="EwtHWBw10y8LaySsHu0H-12" value=":Редактирование проекта" style="html=1;align=center;verticalAlign=top;rounded=1;absoluteArcSize=1;arcSize=10;dashed=0;whiteSpace=wrap;" vertex="1" parent="1">
          <mxGeometry x="555" y="330" width="140" height="40" as="geometry" />
        </mxCell>
        <mxCell id="EwtHWBw10y8LaySsHu0H-13" value="" style="endArrow=open;html=1;rounded=1;align=center;verticalAlign=top;endFill=0;labelBackgroundColor=none;endSize=6;exitX=1;exitY=0.75;exitDx=0;exitDy=0;curved=0;entryX=0;entryY=0.25;entryDx=0;entryDy=0;" edge="1" parent="1" source="ju3X173J6w4Ng7l485Qm-13" target="EwtHWBw10y8LaySsHu0H-12">
          <mxGeometry relative="1" as="geometry">
            <mxPoint x="425" y="320" as="sourcePoint" />
            <mxPoint x="565" y="320" as="targetPoint" />
          </mxGeometry>
        </mxCell>
        <mxCell id="EwtHWBw10y8LaySsHu0H-14" value="Редактировать проект" style="edgeLabel;html=1;align=center;verticalAlign=middle;resizable=0;points=[];" vertex="1" connectable="0" parent="EwtHWBw10y8LaySsHu0H-13">
          <mxGeometry x="-0.0223" y="1" relative="1" as="geometry">
            <mxPoint y="-9" as="offset" />
          </mxGeometry>
        </mxCell>
        <mxCell id="EwtHWBw10y8LaySsHu0H-20" value="Пользователи" style="html=1;align=center;verticalAlign=top;rounded=1;absoluteArcSize=1;arcSize=10;dashed=0;whiteSpace=wrap;" vertex="1" parent="1">
          <mxGeometry x="274" y="610" width="140" height="40" as="geometry" />
        </mxCell>
        <mxCell id="EwtHWBw10y8LaySsHu0H-21" value="" style="ellipse;whiteSpace=wrap;html=1;" vertex="1" parent="1">
          <mxGeometry x="194" y="620" width="20" height="20" as="geometry" />
        </mxCell>
        <mxCell id="EwtHWBw10y8LaySsHu0H-22" value="" style="endArrow=open;html=1;rounded=1;exitX=0.001;exitY=0.848;exitDx=0;exitDy=0;entryX=0;entryY=0.5;entryDx=0;entryDy=0;curved=0;exitPerimeter=0;endFill=0;" edge="1" parent="1" target="EwtHWBw10y8LaySsHu0H-21">
          <mxGeometry width="50" height="50" relative="1" as="geometry">
            <mxPoint x="204.27999999999997" y="659.8399999999999" as="sourcePoint" />
            <mxPoint x="146" y="550" as="targetPoint" />
            <Array as="points">
              <mxPoint x="70" y="660" />
              <mxPoint x="70" y="630" />
            </Array>
          </mxGeometry>
        </mxCell>
        <mxCell id="EwtHWBw10y8LaySsHu0H-23" value="Выбрать Пользователи" style="edgeLabel;html=1;align=center;verticalAlign=middle;resizable=0;points=[];" vertex="1" connectable="0" parent="EwtHWBw10y8LaySsHu0H-22">
          <mxGeometry x="-0.142" relative="1" as="geometry">
            <mxPoint x="59" y="10" as="offset" />
          </mxGeometry>
        </mxCell>
        <mxCell id="EwtHWBw10y8LaySsHu0H-24" value="" style="endArrow=open;html=1;rounded=1;align=center;verticalAlign=top;endFill=0;labelBackgroundColor=none;endSize=6;exitX=1;exitY=0.5;exitDx=0;exitDy=0;curved=0;entryX=0;entryY=0.5;entryDx=0;entryDy=0;" edge="1" parent="1" source="EwtHWBw10y8LaySsHu0H-21" target="EwtHWBw10y8LaySsHu0H-20">
          <mxGeometry relative="1" as="geometry">
            <mxPoint x="224" y="540" as="sourcePoint" />
            <mxPoint x="274" y="620" as="targetPoint" />
          </mxGeometry>
        </mxCell>
        <mxCell id="EwtHWBw10y8LaySsHu0H-25" value=":Создание пользователя" style="html=1;align=center;verticalAlign=top;rounded=1;absoluteArcSize=1;arcSize=10;dashed=0;whiteSpace=wrap;" vertex="1" parent="1">
          <mxGeometry x="555" y="610" width="140" height="40" as="geometry" />
        </mxCell>
        <mxCell id="EwtHWBw10y8LaySsHu0H-26" value="" style="endArrow=open;html=1;rounded=1;align=center;verticalAlign=top;endFill=0;labelBackgroundColor=none;endSize=6;exitX=1;exitY=0.5;exitDx=0;exitDy=0;curved=0;entryX=0;entryY=0.5;entryDx=0;entryDy=0;" edge="1" parent="1" source="EwtHWBw10y8LaySsHu0H-20" target="EwtHWBw10y8LaySsHu0H-25">
          <mxGeometry relative="1" as="geometry">
            <mxPoint x="425" y="320" as="sourcePoint" />
            <mxPoint x="565" y="320" as="targetPoint" />
          </mxGeometry>
        </mxCell>
        <mxCell id="EwtHWBw10y8LaySsHu0H-27" value="Создать пользователя" style="edgeLabel;html=1;align=center;verticalAlign=middle;resizable=0;points=[];" vertex="1" connectable="0" parent="EwtHWBw10y8LaySsHu0H-26">
          <mxGeometry x="-0.0223" y="1" relative="1" as="geometry">
            <mxPoint y="-9" as="offset" />
          </mxGeometry>
        </mxCell>
        <mxCell id="EwtHWBw10y8LaySsHu0H-28" value="" style="rhombus;whiteSpace=wrap;html=1;" vertex="1" parent="1">
          <mxGeometry x="720" y="340" width="30" height="20" as="geometry" />
        </mxCell>
        <mxCell id="EwtHWBw10y8LaySsHu0H-29" value="" style="endArrow=open;html=1;rounded=1;entryX=0.5;entryY=0;entryDx=0;entryDy=0;curved=0;endFill=0;exitX=1;exitY=0.5;exitDx=0;exitDy=0;" edge="1" parent="1" source="EwtHWBw10y8LaySsHu0H-9" target="EwtHWBw10y8LaySsHu0H-28">
          <mxGeometry width="50" height="50" relative="1" as="geometry">
            <mxPoint x="565" y="460" as="sourcePoint" />
            <mxPoint x="425" y="460" as="targetPoint" />
            <Array as="points">
              <mxPoint x="735" y="300" />
            </Array>
          </mxGeometry>
        </mxCell>
        <mxCell id="EwtHWBw10y8LaySsHu0H-31" value="" style="endArrow=open;html=1;rounded=1;entryX=0;entryY=0.5;entryDx=0;entryDy=0;curved=0;endFill=0;exitX=1;exitY=0.5;exitDx=0;exitDy=0;" edge="1" parent="1" source="EwtHWBw10y8LaySsHu0H-12" target="EwtHWBw10y8LaySsHu0H-28">
          <mxGeometry width="50" height="50" relative="1" as="geometry">
            <mxPoint x="565" y="460" as="sourcePoint" />
            <mxPoint x="425" y="460" as="targetPoint" />
          </mxGeometry>
        </mxCell>
        <mxCell id="EwtHWBw10y8LaySsHu0H-32" value="" style="endArrow=open;html=1;rounded=1;entryX=0.5;entryY=1;entryDx=0;entryDy=0;curved=0;endFill=0;exitX=0.5;exitY=1;exitDx=0;exitDy=0;" edge="1" parent="1" source="EwtHWBw10y8LaySsHu0H-28" target="ju3X173J6w4Ng7l485Qm-13">
          <mxGeometry width="50" height="50" relative="1" as="geometry">
            <mxPoint x="705" y="310" as="sourcePoint" />
            <mxPoint x="745" y="350" as="targetPoint" />
            <Array as="points">
              <mxPoint x="735" y="380" />
              <mxPoint x="345" y="380" />
            </Array>
          </mxGeometry>
        </mxCell>
      </root>
    </mxGraphModel>
  </diagram>
</mxfile>
